# Blender v2.74 (sub 0) OBJ File: ''
# www.blender.org
v -0.100000 -0.100000 1.900000
v 0.100000 -0.100000 1.900000
v 0.100000 -0.000000 1.900000
v 0.100000 -0.100000 -0.100000
v 0.100000 0.000000 -0.100000
v -0.100000 0.000000 -0.100000
v -0.100000 -0.000000 1.900000
v -0.100000 -0.100000 -0.100000
v 0.005000 -0.100000 0.086603
v 0.005000 -1.100000 0.086603
v 0.005000 -0.100000 1.086603
v -0.005000 -0.100000 0.086603
v -0.005000 -1.100000 0.086603
v -0.005000 -0.100000 1.086603
v 0.100000 -5.000000 -0.000001
v 0.050000 -5.000000 -0.086604
v 0.050000 -0.100000 -0.086603
v -0.050000 -5.000000 -0.086604
v -0.050000 -0.100000 -0.086603
v -0.100000 -5.000000 -0.000001
v -0.100000 -0.100000 -0.000000
v -0.050000 -5.000000 0.086602
v -0.050000 -0.100000 0.086603
v 0.050000 -5.000000 0.086602
v 0.050000 -0.100000 0.086603
v 0.100000 -0.100000 -0.000000
v -0.106066 -5.100000 0.106065
v 0.000000 -5.100000 0.149999
v 0.000000 -4.993934 0.106065
v -0.075000 -5.206067 0.074999
v 0.000000 -5.206067 0.106065
v 0.106066 -5.100000 0.106065
v 0.075000 -4.993934 0.074999
v 0.075000 -5.206067 0.074999
v 0.150000 -5.100000 -0.000001
v 0.106066 -4.993934 -0.000001
v 0.106066 -5.206067 -0.000001
v 0.106066 -5.100000 -0.106067
v 0.075000 -5.206067 -0.075001
v 0.075000 -4.993934 -0.075001
v 0.000000 -5.100000 -0.150001
v 0.000000 -5.206067 -0.106067
v -0.106066 -5.100000 -0.106067
v -0.075000 -4.993934 -0.075001
v -0.075000 -5.206067 -0.075001
v 0.000000 -4.950000 -0.000001
v -0.106066 -4.993934 -0.000001
v -0.075000 -4.993934 0.074999
v -0.150000 -5.100000 -0.000001
v -0.106066 -5.206067 -0.000001
v 0.000000 -5.250000 -0.000001
v 0.000000 -4.993934 -0.106067
vt 0.044276 0.915151
vt 0.115690 0.915151
vt 0.115690 0.950858
vt 0.115689 0.201018
vt 0.151396 0.201018
vt 0.151396 0.915151
vt 0.044276 0.165312
vt 0.115689 0.165312
vt 0.008569 0.915151
vt 0.008569 0.201018
vt 0.044276 0.201018
vt 0.996094 0.996094
vt 0.996094 0.127930
vt 0.127930 0.996094
vt 0.044276 0.950858
vt 0.999887 0.040920
vt 0.999887 0.061324
vt 0.000113 0.061326
vt 0.999887 0.081727
vt 0.000113 0.081730
vt 0.999887 0.102131
vt 0.000113 0.102135
vt 0.999887 0.122535
vt 0.000113 0.122539
vt 0.999887 0.000113
vt 0.999887 0.020516
vt 0.000113 0.020517
vt 0.000113 0.040921
vt 0.286695 0.241265
vt 0.202272 0.246188
vt 0.219785 0.146831
vt 0.294216 0.320178
vt 0.231392 0.331692
vt 0.772930 0.232352
vt 0.688506 0.237276
vt 0.680986 0.158362
vt 0.755417 0.331710
vt 0.684926 0.325023
vt 0.618917 0.239406
vt 0.617126 0.160996
vt 0.617400 0.322136
vt 0.552800 0.239698
vt 0.551549 0.320233
vt 0.553061 0.160896
vt 0.487601 0.239270
vt 0.486585 0.318720
vt 0.422402 0.238842
vt 0.423653 0.158307
vt 0.422140 0.317644
vt 0.275531 0.405756
vt 0.202273 0.375411
vt 0.245186 0.332498
vt 0.357801 0.156404
vt 0.356285 0.239134
vt 0.358076 0.317545
vt 0.202272 0.522716
vt 0.275531 0.553061
vt 0.202272 0.583405
vt 0.305875 0.332498
vt 0.245186 0.626319
vt 0.348789 0.375411
vt 0.305875 0.626319
vt 0.348789 0.436101
vt 0.348789 0.583405
vt 0.305875 0.479014
vt 0.348789 0.522716
vt 0.245186 0.479014
vt 0.305875 0.479802
vt 0.202272 0.436101
vt 0.245186 0.479802
vt 0.000113 0.000113
vt 0.290276 0.153518
vt 0.743810 0.146848
vt 0.488617 0.159821
vn 0.000000 0.000000 1.000000
vn 1.000000 0.000000 0.000000
vn 0.000000 0.000000 -1.000000
vn -1.000000 0.000000 0.000000
vn 0.000000 -1.000000 -0.000000
vn 0.500000 0.000000 -0.866000
vn -0.500000 0.000000 -0.866000
vn -0.500000 -0.000000 0.866000
vn 0.500000 -0.000000 0.866000
vn -0.707100 0.000000 0.707100
vn -0.000000 0.663000 0.748600
vn -0.529400 -0.663000 0.529400
vn -0.000000 -0.663000 0.748600
vn 0.707100 0.000000 0.707100
vn 0.529400 0.663000 0.529400
vn 0.529400 -0.663000 0.529400
vn 0.748600 0.663000 0.000000
vn 0.748600 -0.663000 -0.000000
vn 0.707100 0.000000 -0.707100
vn 0.529400 -0.663000 -0.529400
vn 0.529400 0.663000 -0.529400
vn -0.000000 -0.663000 -0.748600
vn -0.707100 0.000000 -0.707100
vn -0.529400 0.663000 -0.529400
vn -0.529400 -0.663000 -0.529400
vn 0.000000 1.000000 0.000000
vn -0.748600 0.663000 0.000000
vn -0.529400 0.663000 0.529400
vn -0.748600 -0.663000 -0.000000
vn -0.000000 0.663000 -0.748600
s off
f 1/1/1 2/2/1 3/3/1
f 4/4/2 5/5/2 3/6/2
f 6/7/3 5/8/3 4/4/3
f 1/1/4 7/9/4 6/10/4
f 8/11/5 4/4/5 2/2/5
f 9/12/2 11/13/2 10/14/2
f 12/12/4 13/14/4 14/13/4
f 7/15/1 1/1/1 3/3/1
f 2/2/2 4/4/2 3/6/2
f 8/11/3 6/7/3 4/4/3
f 8/11/4 1/1/4 6/10/4
f 1/1/5 8/11/5 2/2/5
s 1
f 15/16/2 16/17/6 17/18/6
f 16/17/6 18/19/7 19/20/7
f 18/19/7 20/21/4 21/22/4
f 20/21/4 22/23/8 23/24/8
f 22/25/8 24/26/9 25/27/9
f 24/26/9 15/16/2 26/28/2
f 27/29/10 28/30/1 29/31/11
f 27/29/10 30/32/12 31/33/13
f 28/34/1 32/35/14 33/36/15
f 28/34/1 31/37/13 34/38/16
f 32/35/14 35/39/2 36/40/17
f 32/35/14 34/38/16 37/41/18
f 36/40/17 35/39/2 38/42/19
f 37/41/18 39/43/20 38/42/19
f 40/44/21 38/42/19 41/45/3
f 39/43/20 42/46/22 41/45/3
f 41/45/3 43/47/23 44/48/24
f 42/46/22 45/49/25 43/47/23
f 46/50/26 47/51/27 48/52/28
f 47/53/27 49/54/4 27/29/10
f 50/55/29 30/32/12 27/29/10
f 50/56/29 51/57/5 30/58/12
f 46/50/26 48/52/28 29/59/11
f 30/58/12 51/57/5 31/60/13
f 46/50/26 29/59/11 33/61/15
f 31/60/13 51/57/5 34/62/16
f 46/50/26 33/61/15 36/63/17
f 34/62/16 51/57/5 37/64/18
f 46/50/26 36/63/17 40/65/21
f 37/64/18 51/57/5 39/66/20
f 46/50/26 40/65/21 52/67/30
f 39/66/20 51/57/5 42/68/22
f 46/50/26 52/67/30 44/69/24
f 42/68/22 51/57/5 45/70/25
f 46/50/26 44/69/24 47/51/27
f 43/47/23 49/54/4 47/53/27
f 43/47/23 45/49/25 50/55/29
f 45/70/25 51/57/5 50/56/29
f 26/28/2 15/16/2 17/18/6
f 17/18/6 16/17/6 19/20/7
f 19/20/7 18/19/7 21/22/4
f 21/22/4 20/21/4 23/24/8
f 23/71/8 22/25/8 25/27/9
f 25/27/9 24/26/9 26/28/2
f 48/72/28 27/29/10 29/31/11
f 28/30/1 27/29/10 31/33/13
f 29/73/11 28/34/1 33/36/15
f 32/35/14 28/34/1 34/38/16
f 33/36/15 32/35/14 36/40/17
f 35/39/2 32/35/14 37/41/18
f 40/44/21 36/40/17 38/42/19
f 35/39/2 37/41/18 38/42/19
f 52/74/30 40/44/21 41/45/3
f 38/42/19 39/43/20 41/45/3
f 52/74/30 41/45/3 44/48/24
f 41/45/3 42/46/22 43/47/23
f 48/72/28 47/53/27 27/29/10
f 49/54/4 50/55/29 27/29/10
f 44/48/24 43/47/23 47/53/27
f 49/54/4 43/47/23 50/55/29
