# Blender v2.74 (sub 0) OBJ File: ''
# www.blender.org
v 0.000000 0.707107 -0.707107
v 0.270598 0.653281 -0.707107
v 0.146447 0.353553 -0.923880
v 0.000000 0.923880 -0.382684
v 0.353553 0.853553 -0.382684
v 0.000000 1.000000 0.000000
v 0.382683 0.923880 0.000000
v 0.000000 0.923880 0.382683
v 0.353553 0.853553 0.382683
v 0.000000 0.707107 0.707107
v 0.270598 0.653281 0.707107
v 0.000000 0.382683 0.923880
v 0.146447 0.353553 0.923880
v 0.500000 0.500000 -0.707107
v 0.270598 0.270598 -0.923880
v 0.653281 0.653281 -0.382684
v 0.707107 0.707107 0.000000
v 0.653281 0.653281 0.382683
v 0.500000 0.500000 0.707107
v 0.270598 0.270598 0.923880
v 0.653281 0.270598 -0.707107
v 0.853553 0.353553 -0.382684
v 0.923879 0.382683 0.000000
v 0.853553 0.353553 0.382683
v 0.653281 0.270598 0.707107
v 0.353553 0.146447 0.923880
v 0.353553 0.146447 -0.923880
v 0.707107 0.000000 -0.707107
v 0.923879 0.000000 -0.382684
v 1.000000 0.000000 0.000000
v 0.923879 -0.000000 0.382683
v 0.707107 -0.000000 0.707107
v 0.382683 -0.000000 0.923880
v 0.653281 -0.270598 -0.707107
v 0.353553 -0.146446 -0.923880
v 0.853553 -0.353553 -0.382684
v 0.923879 -0.382683 -0.000000
v 0.853553 -0.353553 0.382683
v 0.653281 -0.270598 0.707107
v 0.353553 -0.146446 0.923880
v 0.500000 -0.500000 -0.707107
v 0.270598 -0.270598 -0.923880
v 0.653281 -0.653281 -0.382684
v 0.707106 -0.707107 -0.000000
v 0.653281 -0.653281 0.382683
v 0.500000 -0.500000 0.707107
v 0.270598 -0.270598 0.923880
v 0.270598 -0.653281 -0.707107
v 0.353553 -0.853553 -0.382684
v 0.382683 -0.923879 -0.000000
v 0.353553 -0.853553 0.382683
v 0.270598 -0.653281 0.707107
v 0.146446 -0.353553 0.923880
v 0.146446 -0.353553 -0.923880
v 0.000000 -0.707106 -0.707107
v 0.000000 -0.923879 -0.382684
v 0.000000 -1.000000 -0.000000
v 0.000000 -0.923879 0.382683
v 0.000000 -0.707106 0.707107
v 0.000000 -0.382683 0.923880
v 0.000000 -0.382683 -0.923880
v -0.270598 -0.653281 -0.707107
v -0.353554 -0.853553 -0.382684
v -0.382684 -0.923879 -0.000000
v -0.353554 -0.853553 0.382683
v -0.270598 -0.653281 0.707107
v -0.146447 -0.353553 0.923880
v -0.500000 -0.499999 -0.707107
v -0.270598 -0.270598 -0.923880
v -0.653282 -0.653281 -0.382684
v -0.707107 -0.707106 -0.000000
v -0.653282 -0.653281 0.382683
v -0.500000 -0.499999 0.707107
v -0.270598 -0.270598 0.923880
v -0.653281 -0.270597 -0.707107
v -0.353553 -0.146446 -0.923880
v -0.853553 -0.353553 -0.382684
v -0.923879 -0.382683 -0.000000
v -0.853553 -0.353553 0.382683
v -0.653281 -0.270597 0.707107
v -0.353553 -0.146446 0.923880
v -0.707106 0.000000 -0.707107
v -0.923879 0.000001 -0.382684
v -1.000000 0.000001 0.000000
v -0.923879 0.000001 0.382683
v -0.707106 -0.000000 0.707107
v -0.382683 -0.000000 0.923880
v -0.653281 0.270598 -0.707107
v -0.353553 0.146447 -0.923880
v -0.853553 0.353554 -0.382684
v -0.923879 0.382684 0.000000
v -0.853553 0.353554 0.382683
v -0.653281 0.270598 0.707107
v -0.353553 0.146447 0.923880
v -0.499999 0.500000 -0.707107
v -0.270598 0.270598 -0.923880
v -0.653281 0.653282 -0.382684
v -0.707106 0.707107 0.000000
v -0.653281 0.653282 0.382683
v -0.499999 0.500000 0.707107
v -0.270598 0.270598 0.923880
v -0.270598 0.653281 -0.707107
v -0.146446 0.353553 -0.923880
v -0.353553 0.853553 -0.382684
v -0.382683 0.923880 0.000000
v -0.353553 0.853553 0.382683
v -0.270598 0.653281 0.707107
v -0.146446 0.353553 0.923880
v 0.000000 0.382683 -0.923880
v 0.382683 0.000000 -0.923880
v -0.382683 0.000000 -0.923880
v -0.146447 -0.353553 -0.923880
v 0.000000 0.000000 -1.000000
v 0.000000 0.000000 -1.000000
v 0.000000 0.000000 -1.000000
v 0.000000 0.000000 -1.000000
v 0.000000 0.000000 -1.000000
v 0.000000 0.000000 -1.000000
v 0.000000 0.000000 -1.000000
v 0.000000 0.000000 -1.000000
v 0.000000 0.000000 -1.000000
v 0.000000 0.000000 -1.000000
v 0.000000 0.000000 -1.000000
v 0.000000 0.000000 -1.000000
v 0.000000 0.000000 -1.000000
v 0.000000 0.000000 -1.000000
v 0.000000 0.000000 -1.000000
v 0.000000 0.000000 -1.000000
v 0.000000 -0.000000 1.000000
v 0.000000 -0.000000 1.000000
v 0.000000 -0.000000 1.000000
v 0.000000 -0.000000 1.000000
v 0.000000 -0.000000 1.000000
v 0.000000 -0.000000 1.000000
v 0.000000 -0.000000 1.000000
v 0.000000 -0.000000 1.000000
v 0.000000 -0.000000 1.000000
v 0.000000 -0.000000 1.000000
v 0.000000 -0.000000 1.000000
v 0.000000 -0.000000 1.000000
v 0.000000 -0.000000 1.000000
v 0.000000 -0.000000 1.000000
v 0.000000 -0.000000 1.000000
v 0.000000 -0.000000 1.000000
vt 0.500000 0.250000
vt 0.437500 0.250000
vt 0.437500 0.125000
vt 0.500000 0.375000
vt 0.437500 0.375000
vt 0.500000 0.500000
vt 0.437500 0.500000
vt 0.500000 0.625000
vt 0.437500 0.625000
vt 0.500000 0.750000
vt 0.437500 0.750000
vt 0.500000 0.875000
vt 0.437500 0.875000
vt 0.375000 0.250000
vt 0.375000 0.125000
vt 0.375000 0.375000
vt 0.375000 0.500000
vt 0.375000 0.625000
vt 0.375000 0.750000
vt 0.375000 0.875000
vt 0.312500 0.250000
vt 0.312500 0.375000
vt 0.312500 0.500000
vt 0.312500 0.625000
vt 0.312500 0.750000
vt 0.312500 0.875000
vt 0.312500 0.125000
vt 0.250000 0.250000
vt 0.250000 0.375000
vt 0.250000 0.500000
vt 0.250000 0.625000
vt 0.250000 0.750000
vt 0.250000 0.875000
vt 0.187500 0.250000
vt 0.187500 0.125000
vt 0.187500 0.375000
vt 0.187500 0.500000
vt 0.187500 0.625000
vt 0.187500 0.750000
vt 0.187500 0.875000
vt 0.125000 0.250000
vt 0.125000 0.125000
vt 0.125000 0.375000
vt 0.125000 0.500000
vt 0.125000 0.625000
vt 0.125000 0.750000
vt 0.125000 0.875000
vt 0.062500 0.250000
vt 0.062500 0.375000
vt 0.062500 0.500000
vt 0.062500 0.625000
vt 0.062500 0.750000
vt 0.062500 0.875000
vt 0.062500 0.125000
vt 0.000000 0.250000
vt 0.000000 0.375000
vt 0.000000 0.500000
vt 0.000000 0.625000
vt 0.000000 0.750000
vt 0.000000 0.875000
vt 1.000000 0.125000
vt 1.000000 0.250000
vt 0.937500 0.250000
vt 1.000000 0.375000
vt 0.937500 0.375000
vt 1.000000 0.500000
vt 0.937500 0.500000
vt 1.000000 0.625000
vt 0.937500 0.625000
vt 1.000000 0.750000
vt 0.937500 0.750000
vt 1.000000 0.875000
vt 0.937500 0.875000
vt 0.875000 0.250000
vt 0.875000 0.125000
vt 0.875000 0.375000
vt 0.875000 0.500000
vt 0.875000 0.625000
vt 0.875000 0.750000
vt 0.875000 0.875000
vt 0.812500 0.250000
vt 0.812500 0.125000
vt 0.812500 0.375000
vt 0.812500 0.500000
vt 0.812500 0.625000
vt 0.812500 0.750000
vt 0.812500 0.875000
vt 0.750000 0.250000
vt 0.750000 0.375000
vt 0.750000 0.500000
vt 0.750000 0.625000
vt 0.750000 0.750000
vt 0.750000 0.875000
vt 0.687500 0.250000
vt 0.687500 0.125000
vt 0.687500 0.375000
vt 0.687500 0.500000
vt 0.687500 0.625000
vt 0.687500 0.750000
vt 0.687500 0.875000
vt 0.625000 0.250000
vt 0.625000 0.125000
vt 0.625000 0.375000
vt 0.625000 0.500000
vt 0.625000 0.625000
vt 0.625000 0.750000
vt 0.625000 0.875000
vt 0.562500 0.250000
vt 0.562500 0.125000
vt 0.562500 0.375000
vt 0.562500 0.500000
vt 0.562500 0.625000
vt 0.562500 0.750000
vt 0.562500 0.875000
vt 0.500000 0.125000
vt 0.250000 0.125000
vt 0.000000 0.125000
vt 0.937500 0.125000
vt 0.750000 0.125000
vt 0.593750 0.000000
vt 0.406250 0.000000
vt 0.656250 0.000000
vt 0.781250 0.000000
vt 0.906250 0.000000
vt 0.531250 0.000000
vt 0.718750 0.000000
vt 0.281250 0.000000
vt 0.218750 0.000000
vt 0.093750 0.000000
vt 0.468750 0.000000
vt 0.343750 0.000000
vt 0.031250 0.000000
vt 0.843750 0.000000
vt 0.968750 0.000000
vt 0.156250 0.000000
vt 0.968750 1.000000
vt 0.093750 1.000000
vt 0.343750 1.000000
vt 0.468750 1.000000
vt 0.218750 1.000000
vt 0.593750 1.000000
vt 0.718750 1.000000
vt 0.843750 1.000000
vt 0.031250 1.000000
vt 0.781250 1.000000
vt 0.531250 1.000000
vt 0.406250 1.000000
vt 0.656250 1.000000
vt 0.156250 1.000000
vt 0.281250 1.000000
vt 0.906250 1.000000
vn -0.000000 0.718900 -0.695200
vn 0.275100 0.664100 -0.695200
vn 0.154300 0.372400 -0.915200
vn 0.000000 0.927300 -0.374400
vn 0.354900 0.856700 -0.374400
vn 0.000000 1.000000 -0.000000
vn 0.382700 0.923900 -0.000000
vn 0.000000 0.927300 0.374400
vn 0.354900 0.856700 0.374400
vn -0.000000 0.718900 0.695200
vn 0.275100 0.664100 0.695200
vn -0.000000 0.403100 0.915200
vn 0.154300 0.372400 0.915200
vn 0.508300 0.508300 -0.695200
vn 0.285000 0.285000 -0.915200
vn 0.655700 0.655700 -0.374400
vn 0.707100 0.707100 0.000000
vn 0.655700 0.655700 0.374400
vn 0.508300 0.508300 0.695200
vn 0.285000 0.285000 0.915200
vn 0.664100 0.275100 -0.695200
vn 0.856700 0.354900 -0.374400
vn 0.923900 0.382700 0.000000
vn 0.856700 0.354900 0.374400
vn 0.664100 0.275100 0.695200
vn 0.372400 0.154300 0.915200
vn 0.372400 0.154300 -0.915200
vn 0.718900 -0.000000 -0.695200
vn 0.927300 0.000000 -0.374400
vn 1.000000 -0.000000 0.000000
vn 0.927300 -0.000000 0.374400
vn 0.718900 -0.000000 0.695200
vn 0.403100 -0.000000 0.915200
vn 0.664100 -0.275100 -0.695200
vn 0.372400 -0.154300 -0.915200
vn 0.856700 -0.354900 -0.374400
vn 0.923900 -0.382700 0.000000
vn 0.856700 -0.354900 0.374400
vn 0.664100 -0.275100 0.695200
vn 0.372400 -0.154300 0.915200
vn 0.508300 -0.508300 -0.695200
vn 0.285000 -0.285000 -0.915200
vn 0.655700 -0.655700 -0.374400
vn 0.707100 -0.707100 0.000000
vn 0.655700 -0.655700 0.374400
vn 0.508300 -0.508300 0.695200
vn 0.285000 -0.285000 0.915200
vn 0.275100 -0.664100 -0.695200
vn 0.354900 -0.856700 -0.374400
vn 0.382700 -0.923900 -0.000000
vn 0.354900 -0.856700 0.374400
vn 0.275100 -0.664100 0.695200
vn 0.154300 -0.372400 0.915200
vn 0.154300 -0.372400 -0.915200
vn 0.000000 -0.718900 -0.695200
vn 0.000000 -0.927300 -0.374400
vn 0.000000 -1.000000 0.000000
vn -0.000000 -0.927300 0.374400
vn -0.000000 -0.718900 0.695200
vn 0.000000 -0.403100 0.915200
vn 0.000000 -0.403100 -0.915200
vn -0.275100 -0.664100 -0.695200
vn -0.354900 -0.856700 -0.374400
vn -0.382700 -0.923900 0.000000
vn -0.354900 -0.856700 0.374400
vn -0.275100 -0.664100 0.695200
vn -0.154300 -0.372400 0.915200
vn -0.508300 -0.508300 -0.695200
vn -0.285000 -0.285000 -0.915200
vn -0.655700 -0.655700 -0.374400
vn -0.707100 -0.707100 -0.000000
vn -0.655700 -0.655700 0.374400
vn -0.508300 -0.508300 0.695200
vn -0.285000 -0.285000 0.915200
vn -0.664100 -0.275100 -0.695200
vn -0.372400 -0.154300 -0.915200
vn -0.856700 -0.354900 -0.374400
vn -0.923900 -0.382700 -0.000000
vn -0.856700 -0.354900 0.374400
vn -0.664100 -0.275100 0.695200
vn -0.372400 -0.154300 0.915200
vn -0.718900 -0.000000 -0.695200
vn -0.927300 0.000000 -0.374400
vn -1.000000 0.000000 0.000000
vn -0.927300 0.000000 0.374400
vn -0.718900 -0.000000 0.695200
vn -0.403100 -0.000000 0.915200
vn -0.664100 0.275100 -0.695200
vn -0.372400 0.154300 -0.915200
vn -0.856700 0.354900 -0.374400
vn -0.923900 0.382700 0.000000
vn -0.856700 0.354900 0.374400
vn -0.664100 0.275100 0.695200
vn -0.372400 0.154300 0.915200
vn -0.508300 0.508300 -0.695200
vn -0.285000 0.285000 -0.915200
vn -0.655700 0.655700 -0.374400
vn -0.707100 0.707100 -0.000000
vn -0.655700 0.655700 0.374400
vn -0.508300 0.508300 0.695200
vn -0.285000 0.285000 0.915200
vn -0.275100 0.664100 -0.695200
vn -0.154300 0.372400 -0.915200
vn -0.354900 0.856700 -0.374400
vn -0.382700 0.923900 0.000000
vn -0.354900 0.856700 0.374400
vn -0.275100 0.664100 0.695200
vn -0.154300 0.372400 0.915200
vn -0.000000 0.403100 -0.915200
vn 0.403100 -0.000000 -0.915200
vn -0.154300 -0.372400 -0.915200
vn -0.403100 -0.000000 -0.915200
vn -0.110400 0.165300 -0.980000
vn 0.110400 0.165300 -0.980000
vn -0.165300 0.110400 -0.980000
vn -0.194900 -0.038800 -0.980000
vn -0.110400 -0.165300 -0.980000
vn -0.038800 0.194900 -0.980000
vn -0.194900 0.038800 -0.980000
vn 0.194900 0.038800 -0.980000
vn 0.194900 -0.038800 -0.980000
vn 0.110400 -0.165300 -0.980000
vn 0.038800 0.194900 -0.980000
vn 0.165300 0.110400 -0.980000
vn 0.038800 -0.194900 -0.980000
vn -0.165300 -0.110400 -0.980000
vn -0.038800 -0.194900 -0.980000
vn 0.165300 -0.110400 -0.980000
vn -0.038800 -0.194900 0.980000
vn 0.110400 -0.165300 0.980000
vn 0.165300 0.110400 0.980000
vn 0.038800 0.194900 0.980000
vn 0.194900 -0.038800 0.980000
vn -0.110400 0.165300 0.980000
vn -0.194900 0.038800 0.980000
vn -0.165300 -0.110400 0.980000
vn 0.038800 -0.194900 0.980000
vn -0.194900 -0.038800 0.980000
vn -0.038800 0.194900 0.980000
vn 0.110400 0.165300 0.980000
vn -0.165300 0.110400 0.980000
vn 0.165300 -0.110400 0.980000
vn 0.194900 0.038800 0.980000
vn -0.110400 -0.165300 0.980000
s 1
f 1/1/1 2/2/2 3/3/3
f 1/1/1 4/4/4 5/5/5
f 6/6/6 7/7/7 5/5/5
f 8/8/8 9/9/9 7/7/7
f 10/10/10 11/11/11 9/9/9
f 12/12/12 13/13/13 11/11/11
f 2/2/2 14/14/14 15/15/15
f 5/5/5 16/16/16 14/14/14
f 7/7/7 17/17/17 16/16/16
f 9/9/9 18/18/18 17/17/17
f 11/11/11 19/19/19 18/18/18
f 13/13/13 20/20/20 19/19/19
f 15/15/15 14/14/14 21/21/21
f 16/16/16 22/22/22 21/21/21
f 17/17/17 23/23/23 22/22/22
f 17/17/17 18/18/18 24/24/24
f 19/19/19 25/25/25 24/24/24
f 19/19/19 20/20/20 26/26/26
f 27/27/27 21/21/21 28/28/28
f 22/22/22 29/29/29 28/28/28
f 23/23/23 30/30/30 29/29/29
f 24/24/24 31/31/31 30/30/30
f 25/25/25 32/32/32 31/31/31
f 25/25/25 26/26/26 33/33/33
f 28/28/28 34/34/34 35/35/35
f 29/29/29 36/36/36 34/34/34
f 30/30/30 37/37/37 36/36/36
f 31/31/31 38/38/38 37/37/37
f 31/31/31 32/32/32 39/39/39
f 32/32/32 33/33/33 40/40/40
f 34/34/34 41/41/41 42/42/42
f 36/36/36 43/43/43 41/41/41
f 37/37/37 44/44/44 43/43/43
f 38/38/38 45/45/45 44/44/44
f 39/39/39 46/46/46 45/45/45
f 39/39/39 40/40/40 47/47/47
f 42/42/42 41/41/41 48/48/48
f 43/43/43 49/49/49 48/48/48
f 44/44/44 50/50/50 49/49/49
f 44/44/44 45/45/45 51/51/51
f 46/46/46 52/52/52 51/51/51
f 46/46/46 47/47/47 53/53/53
f 54/54/54 48/48/48 55/55/55
f 49/49/49 56/56/56 55/55/55
f 50/50/50 57/57/57 56/56/56
f 51/51/51 58/58/58 57/57/57
f 52/52/52 59/59/59 58/58/58
f 52/52/52 53/53/53 60/60/60
f 61/61/61 55/62/55 62/63/62
f 56/64/56 63/65/63 62/63/62
f 57/66/57 64/67/64 63/65/63
f 58/68/58 65/69/65 64/67/64
f 59/70/59 66/71/66 65/69/65
f 59/70/59 60/72/60 67/73/67
f 62/63/62 68/74/68 69/75/69
f 62/63/62 63/65/63 70/76/70
f 64/67/64 71/77/71 70/76/70
f 64/67/64 65/69/65 72/78/72
f 66/71/66 73/79/73 72/78/72
f 67/73/67 74/80/74 73/79/73
f 68/74/68 75/81/75 76/82/76
f 70/76/70 77/83/77 75/81/75
f 71/77/71 78/84/78 77/83/77
f 72/78/72 79/85/79 78/84/78
f 72/78/72 73/79/73 80/86/80
f 73/79/73 74/80/74 81/87/81
f 76/82/76 75/81/75 82/88/82
f 75/81/75 77/83/77 83/89/83
f 78/84/78 84/90/84 83/89/83
f 79/85/79 85/91/85 84/90/84
f 80/86/80 86/92/86 85/91/85
f 80/86/80 81/87/81 87/93/87
f 82/88/82 88/94/88 89/95/89
f 82/88/82 83/89/83 90/96/90
f 84/90/84 91/97/91 90/96/90
f 84/90/84 85/91/85 92/98/92
f 86/92/86 93/99/93 92/98/92
f 86/92/86 87/93/87 94/100/94
f 88/94/88 95/101/95 96/102/96
f 90/96/90 97/103/97 95/101/95
f 91/97/91 98/104/98 97/103/97
f 91/97/91 92/98/92 99/105/99
f 93/99/93 100/106/100 99/105/99
f 93/99/93 94/100/94 101/107/101
f 95/101/95 102/108/102 103/109/103
f 97/103/97 104/110/104 102/108/102
f 98/104/98 105/111/105 104/110/104
f 99/105/99 106/112/106 105/111/105
f 100/106/100 107/113/107 106/112/106
f 100/106/100 101/107/101 108/114/108
f 102/108/102 1/1/1 109/115/109
f 104/110/104 4/4/4 1/1/1
f 105/111/105 6/6/6 4/4/4
f 105/111/105 106/112/106 8/8/8
f 106/112/106 107/113/107 10/10/10
f 107/113/107 108/114/108 12/12/12
f 109/115/109 1/1/1 3/3/3
f 2/2/2 1/1/1 5/5/5
f 4/4/4 6/6/6 5/5/5
f 6/6/6 8/8/8 7/7/7
f 8/8/8 10/10/10 9/9/9
f 10/10/10 12/12/12 11/11/11
f 3/3/3 2/2/2 15/15/15
f 2/2/2 5/5/5 14/14/14
f 5/5/5 7/7/7 16/16/16
f 7/7/7 9/9/9 17/17/17
f 9/9/9 11/11/11 18/18/18
f 11/11/11 13/13/13 19/19/19
f 27/27/27 15/15/15 21/21/21
f 14/14/14 16/16/16 21/21/21
f 16/16/16 17/17/17 22/22/22
f 23/23/23 17/17/17 24/24/24
f 18/18/18 19/19/19 24/24/24
f 25/25/25 19/19/19 26/26/26
f 110/116/110 27/27/27 28/28/28
f 21/21/21 22/22/22 28/28/28
f 22/22/22 23/23/23 29/29/29
f 23/23/23 24/24/24 30/30/30
f 24/24/24 25/25/25 31/31/31
f 32/32/32 25/25/25 33/33/33
f 110/116/110 28/28/28 35/35/35
f 28/28/28 29/29/29 34/34/34
f 29/29/29 30/30/30 36/36/36
f 30/30/30 31/31/31 37/37/37
f 38/38/38 31/31/31 39/39/39
f 39/39/39 32/32/32 40/40/40
f 35/35/35 34/34/34 42/42/42
f 34/34/34 36/36/36 41/41/41
f 36/36/36 37/37/37 43/43/43
f 37/37/37 38/38/38 44/44/44
f 38/38/38 39/39/39 45/45/45
f 46/46/46 39/39/39 47/47/47
f 54/54/54 42/42/42 48/48/48
f 41/41/41 43/43/43 48/48/48
f 43/43/43 44/44/44 49/49/49
f 50/50/50 44/44/44 51/51/51
f 45/45/45 46/46/46 51/51/51
f 52/52/52 46/46/46 53/53/53
f 61/117/61 54/54/54 55/55/55
f 48/48/48 49/49/49 55/55/55
f 49/49/49 50/50/50 56/56/56
f 50/50/50 51/51/51 57/57/57
f 51/51/51 52/52/52 58/58/58
f 59/59/59 52/52/52 60/60/60
f 112/118/111 61/61/61 62/63/62
f 55/62/55 56/64/56 62/63/62
f 56/64/56 57/66/57 63/65/63
f 57/66/57 58/68/58 64/67/64
f 58/68/58 59/70/59 65/69/65
f 66/71/66 59/70/59 67/73/67
f 112/118/111 62/63/62 69/75/69
f 68/74/68 62/63/62 70/76/70
f 63/65/63 64/67/64 70/76/70
f 71/77/71 64/67/64 72/78/72
f 65/69/65 66/71/66 72/78/72
f 66/71/66 67/73/67 73/79/73
f 69/75/69 68/74/68 76/82/76
f 68/74/68 70/76/70 75/81/75
f 70/76/70 71/77/71 77/83/77
f 71/77/71 72/78/72 78/84/78
f 79/85/79 72/78/72 80/86/80
f 80/86/80 73/79/73 81/87/81
f 111/119/112 76/82/76 82/88/82
f 82/88/82 75/81/75 83/89/83
f 77/83/77 78/84/78 83/89/83
f 78/84/78 79/85/79 84/90/84
f 79/85/79 80/86/80 85/91/85
f 86/92/86 80/86/80 87/93/87
f 111/119/112 82/88/82 89/95/89
f 88/94/88 82/88/82 90/96/90
f 83/89/83 84/90/84 90/96/90
f 91/97/91 84/90/84 92/98/92
f 85/91/85 86/92/86 92/98/92
f 93/99/93 86/92/86 94/100/94
f 89/95/89 88/94/88 96/102/96
f 88/94/88 90/96/90 95/101/95
f 90/96/90 91/97/91 97/103/97
f 98/104/98 91/97/91 99/105/99
f 92/98/92 93/99/93 99/105/99
f 100/106/100 93/99/93 101/107/101
f 96/102/96 95/101/95 103/109/103
f 95/101/95 97/103/97 102/108/102
f 97/103/97 98/104/98 104/110/104
f 98/104/98 99/105/99 105/111/105
f 99/105/99 100/106/100 106/112/106
f 107/113/107 100/106/100 108/114/108
f 103/109/103 102/108/102 109/115/109
f 102/108/102 104/110/104 1/1/1
f 104/110/104 105/111/105 4/4/4
f 6/6/6 105/111/105 8/8/8
f 8/8/8 106/112/106 10/10/10
f 10/10/10 107/113/107 12/12/12
f 96/102/96 103/109/103 121/120/113
f 3/3/3 15/15/15 125/121/114
f 89/95/89 96/102/96 127/122/115
f 76/82/76 111/119/112 126/123/116
f 112/118/111 69/75/69 124/124/117
f 103/109/103 109/115/109 128/125/118
f 111/119/112 89/95/89 120/126/119
f 27/27/27 110/116/110 123/127/120
f 110/116/110 35/35/35 115/128/121
f 42/42/42 54/54/54 116/129/122
f 109/115/109 3/3/3 113/130/123
f 15/15/15 27/27/27 114/131/124
f 54/54/54 61/117/61 117/132/125
f 69/75/69 76/82/76 119/133/126
f 61/61/61 112/118/111 118/134/127
f 35/35/35 42/42/42 122/135/128
f 67/73/67 60/72/60 135/136/129
f 53/53/53 47/47/47 134/137/130
f 26/26/26 20/20/20 131/138/131
f 13/13/13 12/12/12 129/139/132
f 40/40/40 33/33/33 132/140/133
f 108/114/108 101/107/101 140/141/134
f 94/100/94 87/93/87 138/142/135
f 81/87/81 74/80/74 137/143/136
f 60/60/60 53/53/53 130/144/137
f 87/93/87 81/87/81 143/145/138
f 12/12/12 108/114/108 141/146/139
f 20/20/20 13/13/13 139/147/140
f 101/107/101 94/100/94 144/148/141
f 47/47/47 40/40/40 133/149/142
f 33/33/33 26/26/26 136/150/143
f 74/80/74 67/73/67 142/151/144
